<svg width="174" height="55" viewBox="0 0 174 55" fill="none" xmlns="http://www.w3.org/2000/svg">
<circle cx="27.5" cy="27.5" r="27.5" fill="#00A699"/>
<path d="M21 36V18L34 27L21 36Z" fill="white"/>
<path d="M67.8807 21.3438V19.4545H79.1378V21.3438H74.5994V34H72.4119V21.3438H67.8807ZM83.1452 34.2415C82.454 34.2415 81.829 34.1136 81.2702 33.858C80.7115 33.5975 80.2688 33.2211 79.9421 32.7287C79.6201 32.2363 79.4592 31.6326 79.4592 30.9176C79.4592 30.3021 79.5775 29.7955 79.8143 29.3977C80.051 29 80.3706 28.6851 80.7731 28.4531C81.1755 28.2211 81.6254 28.0459 82.1225 27.9276C82.6197 27.8092 83.1263 27.7192 83.6424 27.6577C84.2958 27.5819 84.8261 27.5204 85.2333 27.473C85.6405 27.4209 85.9364 27.3381 86.1211 27.2244C86.3058 27.1108 86.3981 26.9261 86.3981 26.6705V26.6207C86.3981 26.0005 86.2229 25.5199 85.8725 25.179C85.5269 24.8381 85.0108 24.6676 84.3242 24.6676C83.6093 24.6676 83.0458 24.8262 82.6339 25.1435C82.2267 25.456 81.945 25.804 81.7887 26.1875L79.793 25.733C80.0297 25.0701 80.3754 24.535 80.8299 24.1278C81.2892 23.7159 81.8171 23.4176 82.4137 23.233C83.0103 23.0436 83.6377 22.9489 84.2958 22.9489C84.7314 22.9489 85.1931 23.0009 85.6808 23.1051C86.1732 23.2045 86.6325 23.3892 87.0586 23.6591C87.4895 23.929 87.8422 24.3149 88.1168 24.8168C88.3915 25.3139 88.5288 25.9602 88.5288 26.7557V34H86.4549V32.5085H86.3697C86.2324 32.7831 86.0264 33.053 85.7518 33.3182C85.4772 33.5833 85.1244 33.8035 84.6935 33.9787C84.2627 34.1539 83.7466 34.2415 83.1452 34.2415ZM83.6069 32.5369C84.194 32.5369 84.6959 32.4209 85.1126 32.1889C85.534 31.9569 85.8536 31.6539 86.0714 31.2798C86.2939 30.901 86.4052 30.4962 86.4052 30.0653V28.6591C86.3294 28.7348 86.1826 28.8059 85.9648 28.8722C85.7518 28.9337 85.5079 28.9882 85.2333 29.0355C84.9587 29.0781 84.6912 29.1184 84.4308 29.1562C84.1703 29.1894 83.9525 29.2178 83.7773 29.2415C83.3654 29.2936 82.989 29.3812 82.6481 29.5043C82.3119 29.6274 82.042 29.8049 81.8384 30.0369C81.6396 30.2642 81.5401 30.5672 81.5401 30.946C81.5401 31.4716 81.7343 31.8693 82.1225 32.1392C82.5108 32.4044 83.0056 32.5369 83.6069 32.5369ZM93.3104 30.2997L93.2962 27.7074H93.6655L98.0121 23.0909H100.555L95.5973 28.3466H95.2635L93.3104 30.2997ZM91.3572 34V19.4545H93.4808V34H91.3572ZM98.2464 34L94.3402 28.8153L95.8033 27.331L100.853 34H98.2464ZM106.743 34.2202C105.668 34.2202 104.742 33.9905 103.966 33.5312C103.194 33.0672 102.597 32.4162 102.176 31.5781C101.759 30.7353 101.551 29.7481 101.551 28.6165C101.551 27.4991 101.759 26.5142 102.176 25.6619C102.597 24.8097 103.184 24.1444 103.937 23.6662C104.695 23.188 105.58 22.9489 106.593 22.9489C107.209 22.9489 107.806 23.0507 108.383 23.2543C108.961 23.4579 109.479 23.7775 109.939 24.2131C110.398 24.6487 110.76 25.2145 111.025 25.9105C111.29 26.6018 111.423 27.4422 111.423 28.4318V29.1847H102.751V27.5938H109.342C109.342 27.035 109.228 26.5402 109.001 26.1094C108.774 25.6738 108.454 25.3305 108.042 25.0795C107.635 24.8286 107.157 24.7031 106.608 24.7031C106.011 24.7031 105.49 24.8499 105.045 25.1435C104.605 25.4323 104.264 25.8111 104.022 26.2798C103.786 26.7438 103.667 27.2481 103.667 27.7926V29.0355C103.667 29.7647 103.795 30.3849 104.051 30.8963C104.311 31.4077 104.673 31.7983 105.137 32.0682C105.601 32.3333 106.144 32.4659 106.764 32.4659C107.166 32.4659 107.533 32.4091 107.865 32.2955C108.196 32.1771 108.483 32.0019 108.724 31.7699C108.966 31.5379 109.15 31.2514 109.278 30.9105L111.288 31.2727C111.127 31.8646 110.838 32.383 110.422 32.8281C110.01 33.2685 109.491 33.6117 108.866 33.858C108.246 34.0994 107.538 34.2202 106.743 34.2202ZM122.247 34.2415C121.556 34.2415 120.931 34.1136 120.372 33.858C119.813 33.5975 119.37 33.2211 119.044 32.7287C118.722 32.2363 118.561 31.6326 118.561 30.9176C118.561 30.3021 118.679 29.7955 118.916 29.3977C119.153 29 119.472 28.6851 119.875 28.4531C120.277 28.2211 120.727 28.0459 121.224 27.9276C121.721 27.8092 122.228 27.7192 122.744 27.6577C123.397 27.5819 123.928 27.5204 124.335 27.473C124.742 27.4209 125.038 27.3381 125.223 27.2244C125.407 27.1108 125.5 26.9261 125.5 26.6705V26.6207C125.5 26.0005 125.324 25.5199 124.974 25.179C124.628 24.8381 124.112 24.6676 123.426 24.6676C122.711 24.6676 122.147 24.8262 121.735 25.1435C121.328 25.456 121.047 25.804 120.89 26.1875L118.895 25.733C119.131 25.0701 119.477 24.535 119.931 24.1278C120.391 23.7159 120.919 23.4176 121.515 23.233C122.112 23.0436 122.739 22.9489 123.397 22.9489C123.833 22.9489 124.295 23.0009 124.782 23.1051C125.275 23.2045 125.734 23.3892 126.16 23.6591C126.591 23.929 126.944 24.3149 127.218 24.8168C127.493 25.3139 127.63 25.9602 127.63 26.7557V34H125.556V32.5085H125.471C125.334 32.7831 125.128 33.053 124.853 33.3182C124.579 33.5833 124.226 33.8035 123.795 33.9787C123.364 34.1539 122.848 34.2415 122.247 34.2415ZM122.708 32.5369C123.296 32.5369 123.797 32.4209 124.214 32.1889C124.636 31.9569 124.955 31.6539 125.173 31.2798C125.395 30.901 125.507 30.4962 125.507 30.0653V28.6591C125.431 28.7348 125.284 28.8059 125.066 28.8722C124.853 28.9337 124.609 28.9882 124.335 29.0355C124.06 29.0781 123.793 29.1184 123.532 29.1562C123.272 29.1894 123.054 29.2178 122.879 29.2415C122.467 29.2936 122.091 29.3812 121.75 29.5043C121.413 29.6274 121.144 29.8049 120.94 30.0369C120.741 30.2642 120.642 30.5672 120.642 30.946C120.642 31.4716 120.836 31.8693 121.224 32.1392C121.612 32.4044 122.107 32.5369 122.708 32.5369ZM140.844 23.0909V24.7955H134.885V23.0909H140.844ZM136.483 20.4773H138.607V30.7969C138.607 31.2088 138.668 31.5189 138.792 31.7273C138.915 31.9309 139.073 32.0705 139.267 32.1463C139.466 32.2173 139.682 32.2528 139.914 32.2528C140.084 32.2528 140.233 32.241 140.361 32.2173C140.489 32.1937 140.588 32.1747 140.659 32.1605L141.043 33.9148C140.92 33.9621 140.745 34.0095 140.517 34.0568C140.29 34.1089 140.006 34.1373 139.665 34.142C139.106 34.1515 138.586 34.0521 138.103 33.8438C137.62 33.6354 137.229 33.3134 136.931 32.8778C136.632 32.4422 136.483 31.8954 136.483 31.2372V20.4773ZM147.671 34.2202C146.648 34.2202 145.756 33.9858 144.994 33.517C144.231 33.0483 143.639 32.3925 143.218 31.5497C142.797 30.7069 142.586 29.7221 142.586 28.5952C142.586 27.4635 142.797 26.474 143.218 25.6264C143.639 24.7789 144.231 24.1207 144.994 23.652C145.756 23.1832 146.648 22.9489 147.671 22.9489C148.694 22.9489 149.586 23.1832 150.349 23.652C151.111 24.1207 151.703 24.7789 152.124 25.6264C152.546 26.474 152.756 27.4635 152.756 28.5952C152.756 29.7221 152.546 30.7069 152.124 31.5497C151.703 32.3925 151.111 33.0483 150.349 33.517C149.586 33.9858 148.694 34.2202 147.671 34.2202ZM147.678 32.4375C148.341 32.4375 148.89 32.2623 149.326 31.9119C149.762 31.5616 150.084 31.0952 150.292 30.5128C150.505 29.9304 150.612 29.2888 150.612 28.5881C150.612 27.892 150.505 27.2528 150.292 26.6705C150.084 26.0833 149.762 25.6122 149.326 25.2571C148.89 24.902 148.341 24.7244 147.678 24.7244C147.011 24.7244 146.457 24.902 146.016 25.2571C145.581 25.6122 145.256 26.0833 145.043 26.6705C144.835 27.2528 144.731 27.892 144.731 28.5881C144.731 29.2888 144.835 29.9304 145.043 30.5128C145.256 31.0952 145.581 31.5616 146.016 31.9119C146.457 32.2623 147.011 32.4375 147.678 32.4375ZM162.037 29.4759V23.0909H164.168V34H162.08V32.1108H161.966C161.715 32.6932 161.313 33.1785 160.759 33.5668C160.21 33.9503 159.525 34.142 158.706 34.142C158.006 34.142 157.385 33.9882 156.846 33.6804C156.31 33.3679 155.889 32.9062 155.581 32.2955C155.278 31.6847 155.127 30.9295 155.127 30.0298V23.0909H157.25V29.7741C157.25 30.5175 157.456 31.1094 157.868 31.5497C158.28 31.9901 158.815 32.2102 159.473 32.2102C159.871 32.2102 160.266 32.1108 160.659 31.9119C161.057 31.7131 161.386 31.4124 161.647 31.0099C161.912 30.6075 162.042 30.0961 162.037 29.4759ZM167.021 34V23.0909H169.074V24.8239H169.188C169.386 24.2367 169.737 23.7751 170.239 23.4389C170.745 23.098 171.318 22.9276 171.957 22.9276C172.09 22.9276 172.246 22.9323 172.426 22.9418C172.611 22.9512 172.755 22.9631 172.859 22.9773V25.0085C172.774 24.9848 172.623 24.9588 172.405 24.9304C172.187 24.8973 171.969 24.8807 171.751 24.8807C171.25 24.8807 170.802 24.9872 170.409 25.2003C170.021 25.4086 169.713 25.6998 169.486 26.0739C169.259 26.4432 169.145 26.8646 169.145 27.3381V34H167.021Z" fill="#1C1C1C"/>
</svg>
